# xmcd
#
# Track frame offsets:
#	150
#	21660
#	42172
#	58897
#	84890
#	108500
#	131490
#	149062
#
# Disc length: 2206 seconds
#
# Revision: 3
# Processed by: cddbd v1.5.2PL0 Copyright (c) Steve Scherf et al.
# Submitted via: audiograbber 1.83.01
#
DISCID=73089c08
DTITLE=Chapter 8 - Chapter 8
DYEAR=1979
DGENRE=Oldies
TTITLE0=Don't You Like It
TTITLE1=Ready For Your Love
TTITLE2=Come On Dance With Me
TTITLE3=We Need Your Love
TTITLE4=I Go Disco
TTITLE5=I Just Wanna Be Your Girl
TTITLE6=Come And Boogie
TTITLE7=Let's Get Together
EXTD=
EXTT0=
EXTT1=
EXTT2=
EXTT3=
EXTT4=
EXTT5=
EXTT6=
EXTT7=
PLAYORDER=
